# xmcd CD database file generated by OrangeCD 5.2
#
# Track frame offsets:
#	150
#	15808
#	34936
#	56688
#	83096
#	124746
#	126671
#	141521
#	159231
#	181801
#	201801
#	222928
#	245111
#	262893
#
# Disc length: 3763 seconds
#
# Revision: 24
# Processed by: cddbd v1.5.2PL0 Copyright (c) Steve Scherf et al.
# Submitted via: OrangeCD 5.2
#
DISCID=c50eb10e
DTITLE=Enuff Z'Nuff - Live
DYEAR=2000
DGENRE=Rock
TTITLE0=Kiss the Clown
TTITLE1=Indian Angel
TTITLE2=She Wants More
TTITLE3=Baby Loves You
TTITLE4=In the Groove
TTITLE5=Piano Vie
TTITLE6=In Crowd
TTITLE7=Takin' A Ride
TTITLE8=Social Disease
TTITLE9=Runaway
TTITLE10=Fly High Michelle
TTITLE11=New Thing
TTITLE12=Revolution
TTITLE13=Bring it On Home (Studio)
EXTD=
EXTT0=
EXTT1=
EXTT2=
EXTT3=
EXTT4=
EXTT5=
EXTT6=
EXTT7=
EXTT8=
EXTT9=
EXTT10=
EXTT11=
EXTT12=
EXTT13=
PLAYORDER=
